<svg width="700" height="143" viewBox="0 0 700 143" fill="none" xmlns="http://www.w3.org/2000/svg">
<path fill-rule="evenodd" clip-rule="evenodd" d="M54.4063 2.47939C66.4602 2.47939 76.1595 6.15947 83.5041 13.5197C90.8643 20.8799 94.5289 30.6416 94.5289 42.8202C94.5289 54.9989 90.7552 64.3395 83.2078 72.0116C75.6605 79.6837 65.8677 83.5197 53.8138 83.5197H24.7316V139.626H0V2.47939H54.4063ZM24.3417 24.7315L24.716 61.6262H53.0653C63.8405 61.6262 69.2359 55.7006 69.2359 43.8338C69.2359 37.7211 67.7701 32.9962 64.8541 29.6903C61.9381 26.3689 57.8837 24.716 52.6754 24.716H24.3417V24.7315ZM103.48 46.2196H125.732V139.61H103.48V46.2196ZM134.667 120.025C143.29 120.025 150.198 117.545 155.407 112.602C157.948 110.06 159.851 107.207 161.114 104.041C162.377 100.875 163.016 97.133 163.016 92.8135C163.016 85.0791 160.506 78.7636 155.5 73.8828C150.495 69.002 143.555 66.5538 134.667 66.5538V45.0657C144.054 45.0657 151.726 46.5315 157.683 49.4475C163.64 52.3635 169.285 57.4315 174.618 64.667C179.811 57.8213 185.456 52.8469 191.553 49.7282C197.634 46.6251 205.244 45.0657 214.382 45.0657V66.5538C205.119 66.5538 198.086 68.8929 193.268 73.5865C188.45 78.2802 186.033 84.814 186.033 93.1722C186.033 101.53 188.543 107.628 193.549 112.571C198.554 117.514 205.493 119.993 214.382 119.993V140.733L208.487 140.156C201.392 139.392 195.591 138.004 191.085 135.977C186.578 133.95 183.35 132.11 181.386 130.457C179.421 128.804 177.175 126.075 174.634 122.27C171.842 126.449 168.989 129.63 166.073 131.782C163.157 133.934 158.946 135.961 153.426 137.864C147.906 139.766 141.669 140.717 134.683 140.717V119.978L134.667 120.025ZM262.691 112.041L252.415 99.3005L287.22 72.8224C282.401 67.2711 276.569 64.4799 269.724 64.4799C262.114 64.4799 255.393 67.3958 249.561 73.2279C243.729 79.0599 240.813 85.7184 240.813 93.2034C240.813 100.688 243.542 106.77 249 112.228C254.458 117.685 260.789 120.414 268.024 120.414C277.536 120.414 285.707 115.783 292.569 106.536L310.454 116.812L304.373 125.747C303.359 127.135 299.898 130.051 294.003 134.495C288.109 138.94 279.517 141.154 268.227 141.154C254.411 141.154 242.934 136.616 233.796 127.556C224.658 118.496 220.105 107.051 220.105 93.219C220.105 79.3874 224.705 67.5986 233.89 58.2268C243.09 48.8394 254.723 44.1457 268.788 44.1457C278.675 44.1457 286.643 46.204 292.662 50.3208C298.681 54.4375 302.814 57.8681 305.028 60.597C307.242 63.3259 309.815 67.8013 312.731 74.0076L262.707 112.056L262.691 112.041ZM322.789 2.47939H344.854V139.626H322.789V2.47939ZM413.529 2.47939C425.583 2.47939 435.282 6.15947 442.626 13.5197C449.987 20.8799 453.651 30.6416 453.651 42.8202C453.651 54.9989 449.878 64.3395 442.33 72.0116C434.783 79.6837 424.99 83.5197 412.936 83.5197H383.838V139.626H359.107V2.47939H413.513H413.529ZM383.48 24.7315L383.854 61.6262H412.203C422.978 61.6262 428.374 55.7006 428.374 43.8338C428.374 37.7211 426.908 32.9962 423.992 29.6903C421.076 26.3689 417.022 24.716 411.813 24.716H383.464L383.48 24.7315ZM462.789 80.1515C462.789 70.2651 466.344 61.8289 473.44 54.9209C480.535 47.9817 489.096 44.5199 499.122 44.5199H504.642V65.4466H501.976C496.783 65.4466 492.62 67.006 489.517 70.1403C486.414 73.2435 484.854 77.4381 484.854 82.662V139.626H462.789V80.1515ZM555.057 43.5687C568.499 43.5687 579.913 48.2624 589.301 57.6498C598.688 67.0372 603.382 78.5765 603.382 92.2677C603.382 105.959 598.688 117.732 589.301 127.166C579.913 136.616 568.374 141.341 554.683 141.341C540.991 141.341 530.169 136.554 520.735 126.979C511.285 117.405 506.561 105.834 506.561 92.2677C506.561 78.7012 511.254 67.0372 520.642 57.6498C530.029 48.2624 541.506 43.5687 555.072 43.5687H555.057ZM529.187 92.8291C529.187 100.065 531.76 106.396 536.89 111.853C542.021 117.311 548.086 120.04 555.057 120.04C562.027 120.04 567.734 117.311 572.943 111.853C578.135 106.396 580.74 99.9398 580.74 92.4548C580.74 84.9699 578.198 78.7013 573.13 73.2435C568.062 67.7857 562.027 65.0568 555.057 65.0568C548.086 65.0568 541.865 67.7857 536.797 73.2435C531.729 78.7013 529.187 85.235 529.187 92.8291ZM636.846 111.089C643.941 117.296 650.599 120.414 656.821 120.414C662.014 120.414 666.801 118.294 671.183 114.005C675.565 109.764 677.748 104.883 677.748 99.3941C677.748 93.9051 675.3 88.6812 670.419 84.4865C665.538 80.2762 659.612 78.1711 652.626 78.1711H647.496L645.407 58.5854H649.399C656.634 58.5854 662.684 56.7453 667.565 53.034C672.446 49.3539 674.894 44.6291 674.894 38.8906C674.894 34.6803 673.054 30.7819 669.374 27.2265C667.472 25.4489 665.569 24.0922 663.667 23.2034C661.764 22.3146 659.612 21.8779 657.195 21.8779C651.363 21.8779 645.656 24.0922 640.074 28.5364L626.757 15.0947C636.144 5.05234 646.67 0 658.334 0C669.109 0 678.278 3.86723 685.825 11.6017C693.373 19.3362 697.146 28.7859 697.146 39.951C697.146 47.1864 695.119 53.5799 691.065 59.1624L687.073 62.9673L681.366 66.3978C685.81 68.9396 690.02 72.5418 694.012 77.2355C698.004 81.9292 700 88.8371 700 97.975C700 109.764 695.821 120.102 687.447 128.975C679.073 137.848 669.062 142.292 657.398 142.292C648.26 142.292 640.916 140.296 635.333 136.273L625.634 128.726L620.691 123.424L636.861 111.089H636.846Z" fill="white"/>
<path d="M126.324 2.47974H104.072V23.0166H126.324V2.47974Z" fill="#E230C6"/>
</svg>
